<?xml version="1.0" encoding="UTF-8" standalone="no"?>
<svg
   xmlns:dc="http://purl.org/dc/elements/1.1/"
   xmlns:cc="http://creativecommons.org/ns#"
   xmlns:rdf="http://www.w3.org/1999/02/22-rdf-syntax-ns#"
   xmlns:svg="http://www.w3.org/2000/svg"
   xmlns="http://www.w3.org/2000/svg"
   xmlns:sodipodi="http://sodipodi.sourceforge.net/DTD/sodipodi-0.dtd"
   xmlns:inkscape="http://www.inkscape.org/namespaces/inkscape"
   viewBox="0 0 493 161"
   version="1.1"
   id="svg3813"
   sodipodi:docname="dust-logo.svg"
   inkscape:version="0.92.3 (2405546, 2018-03-11)">
  <metadata
     id="metadata3819">
    <rdf:RDF>
      <cc:Work
         rdf:about="">
        <dc:format>image/svg+xml</dc:format>
        <dc:type
           rdf:resource="http://purl.org/dc/dcmitype/StillImage" />
        <dc:title>Ghost Logo</dc:title>
      </cc:Work>
    </rdf:RDF>
  </metadata>
  <defs
     id="defs3817" />
  <sodipodi:namedview
     pagecolor="#ffffff"
     bordercolor="#666666"
     borderopacity="1"
     objecttolerance="10"
     gridtolerance="10"
     guidetolerance="10"
     inkscape:pageopacity="0"
     inkscape:pageshadow="2"
     inkscape:window-width="1680"
     inkscape:window-height="995"
     id="namedview3815"
     showgrid="false"
     inkscape:zoom="2.1457033"
     inkscape:cx="219.32332"
     inkscape:cy="55.815556"
     inkscape:window-x="0"
     inkscape:window-y="27"
     inkscape:window-maximized="1"
     inkscape:current-layer="g3811" />
  <title
     id="title3795">Ghost Logo</title>
  <g
     fill="none"
     fill-rule="evenodd"
     id="g3811">
    <g
       opacity=".6"
       transform="translate(0 36)"
       fill="#2E3134"
       id="g3809">
      <rect
         x=".209"
         y="69.017"
         width="33.643"
         height="17.014"
         rx="4"
         id="rect3799" />
      <rect
         x="50.672"
         y="69.017"
         width="33.622"
         height="17.014"
         rx="4"
         id="rect3801" />
      <rect
         x=".184"
         y="34.99"
         width="84.121"
         height="17.014"
         rx="4"
         id="rect3803" />
      <rect
         x=".209"
         y=".964"
         width="50.469"
         height="17.013"
         rx="4"
         id="rect3805" />
      <rect
         x="67.494"
         y=".964"
         width="16.821"
         height="17.013"
         rx="4"
         id="rect3807" />
    </g>
    <path
       style="font-style:normal;font-weight:normal;font-size:51.368927px;line-height:1.25;font-family:sans-serif;letter-spacing:0px;word-spacing:0px;fill:#2d3134;fill-opacity:1;stroke:none;stroke-width:1.28422308"
       d="M 188.91016 1.0800781 L 174.69727 3.4785156 L 174.69727 42.691406 C 174.684 42.862307 174.67206 43.013672 174.6582 43.013672 C 174.59276 43.013672 174.33874 42.91408 174.00977 42.771484 C 172.43762 41.788263 170.29445 40.845551 167.50586 39.949219 C 164.30957 38.92184 160.60062 38.408203 156.37695 38.408203 C 151.01175 38.408203 146.21585 39.435478 141.99219 41.490234 C 137.88267 43.544991 134.34494 46.399833 131.37695 50.052734 C 128.40897 53.705635 126.12549 58.099436 124.52734 63.236328 C 123.04335 68.259067 122.30078 73.853308 122.30078 80.017578 C 122.30078 86.410155 123.21457 92.175608 125.04102 97.3125 C 126.86747 102.44939 129.43565 106.84319 132.74609 110.49609 C 136.05654 114.03484 140.05214 116.77424 144.73242 118.71484 C 149.4127 120.65545 154.6068 121.62695 160.31445 121.62695 C 166.70703 121.62695 172.30127 121.16908 177.0957 120.25586 C 181.89014 119.34263 185.82802 118.4308 188.91016 117.51758 L 188.91016 1.0800781 z M 413.90625 15.634766 L 399.86523 18.033203 L 399.86523 40.292969 L 383.08398 40.292969 L 383.08398 52.107422 L 399.86523 52.107422 L 399.86523 89.091797 C 399.86523 94.456995 400.26538 99.195174 401.06445 103.30469 C 401.86353 107.30005 403.28899 110.66853 405.34375 113.4082 C 407.51266 116.14788 410.48099 118.20243 414.24805 119.57227 C 418.0151 120.9421 422.86677 121.62695 428.80273 121.62695 C 433.93963 121.62695 438.21994 121.05559 441.64453 119.91406 C 445.18328 118.77253 447.75147 117.85875 449.34961 117.17383 L 447.29492 105.1875 C 445.01186 106.32903 442.61489 107.24282 440.10352 107.92773 C 437.59215 108.61265 434.28139 108.95508 430.17188 108.95508 C 427.20389 108.95508 424.69343 108.67038 422.63867 108.09961 C 420.58392 107.52884 418.87179 106.50157 417.50195 105.01758 C 416.24627 103.41943 415.33248 101.36489 414.76172 98.853516 C 414.19095 96.342146 413.90625 93.087157 413.90625 89.091797 L 413.90625 52.107422 L 447.4668 52.107422 L 447.4668 40.292969 L 413.90625 40.292969 L 413.90625 15.634766 z M 331.71484 38.408203 C 320.64199 38.408203 312.48151 40.578196 307.23047 44.916016 C 302.09358 49.139682 299.52344 54.447267 299.52344 60.839844 C 299.52344 65.40597 300.66616 69.116874 302.94922 71.970703 C 305.34644 74.824532 308.25705 77.221506 311.68164 79.162109 C 315.22039 81.102713 319.04478 82.757115 323.1543 84.126953 C 327.26381 85.382638 331.03048 86.694615 334.45508 88.064453 C 337.99383 89.434291 340.90444 91.032924 343.1875 92.859375 C 345.58472 94.685826 346.7832 97.02703 346.7832 99.880859 C 346.7832 106.38759 340.33485 109.64062 327.43555 109.64062 C 322.41281 109.64062 317.67463 109.06927 313.22266 107.92773 C 308.88484 106.67205 304.71802 105.13114 300.72266 103.30469 L 297.98242 116.14648 C 302.09194 117.97293 306.42997 119.34263 310.99609 120.25586 C 315.56222 121.16908 320.5851 121.62695 326.06445 121.62695 C 338.16469 121.62695 347.01196 119.68589 352.60547 115.80469 C 358.19897 111.80933 360.99609 106.21509 360.99609 99.023438 C 360.99609 94.571464 359.79761 90.918282 357.40039 88.064453 C 355.11733 85.096471 352.20672 82.586007 348.66797 80.53125 C 345.12922 78.476493 341.30483 76.764369 337.19531 75.394531 C 333.0858 73.91054 329.2614 72.483119 325.72266 71.113281 C 322.18391 69.743443 319.21558 68.260254 316.81836 66.662109 C 314.5353 64.949812 313.39453 62.895263 313.39453 60.498047 C 313.39453 53.763011 319.55818 50.394531 331.88672 50.394531 C 334.05563 50.394531 336.28139 50.508022 338.56445 50.736328 C 340.96167 50.964634 343.18743 51.307059 345.24219 51.763672 C 347.29694 52.106131 349.12451 52.564 350.72266 53.134766 C 352.3208 53.591378 353.57506 54.047294 354.48828 54.503906 L 357.05664 41.833984 C 353.7462 40.806606 349.75255 40.006313 345.07227 39.435547 C 340.50614 38.750628 336.05266 38.408203 331.71484 38.408203 z M 212.71094 40.292969 L 212.71094 84.982422 C 212.71094 90.34762 213.22457 95.257011 214.25195 99.708984 C 215.27933 104.16096 217.04918 108.04307 219.56055 111.35352 C 222.07192 114.5498 225.32495 117.06027 229.32031 118.88672 C 233.31567 120.59902 238.33855 121.45508 244.38867 121.45508 C 251.23786 121.45508 257.17257 120.99916 262.19531 120.08594 C 267.3322 119.17271 271.44326 118.31665 274.52539 117.51758 L 274.52539 40.292969 L 260.3125 40.292969 L 260.3125 107.41406 C 259.97004 107.52822 259.28519 107.69943 258.25781 107.92773 C 257.23043 108.04189 256.03195 108.2131 254.66211 108.44141 C 253.29227 108.55556 251.80908 108.66905 250.21094 108.7832 C 248.72695 108.89736 247.2418 108.95508 245.75781 108.95508 C 238.90862 108.95508 234.00119 106.90053 231.0332 102.79102 C 228.17937 98.681502 226.75195 91.717562 226.75195 81.900391 L 226.75195 40.292969 L 212.71094 40.292969 z M 159.21289 50.962891 C 159.66237 50.967045 160.03809 51.00113 160.43164 51.027344 C 162.09315 51.193601 163.72411 51.535667 165.32617 52.058594 C 165.33206 52.060517 165.33786 52.062525 165.34375 52.064453 C 165.35332 52.067485 165.36154 52.071186 165.37109 52.074219 C 166.14657 52.329054 166.91619 52.624427 167.67773 52.962891 C 170.75987 54.218575 173.09912 55.588275 174.69727 57.072266 L 174.69727 107.41406 C 173.55573 107.75652 171.73012 108.09895 169.21875 108.44141 C 166.82153 108.78387 163.8532 108.95508 160.31445 108.95508 C 154.79223 108.95508 150.09951 107.36981 146.22852 104.21094 C 145.6891 103.74353 145.15105 103.24472 144.60742 102.69727 C 142.81805 100.89529 141.33843 98.848192 140.16211 96.554688 C 140.10707 96.443553 140.04976 96.335131 139.99609 96.222656 C 139.9479 96.125287 139.90454 96.024027 139.85742 95.925781 C 137.8584 91.595285 136.85547 86.294493 136.85547 80.017578 C 136.85547 75.908064 137.25562 72.08367 138.05469 68.544922 C 138.15457 68.088309 138.26085 67.639948 138.375 67.201172 C 138.46735 66.846214 138.56824 66.501488 138.66992 66.158203 C 138.81345 65.685126 138.9595 65.213183 139.11914 64.761719 C 139.31418 64.210123 139.52305 63.677634 139.74219 63.158203 C 139.76898 63.095061 139.79703 63.033353 139.82422 62.970703 C 139.98851 62.589307 140.16233 62.221271 140.33984 61.857422 C 140.43038 61.674783 140.51906 61.48857 140.61328 61.310547 C 140.63182 61.275511 140.65124 61.241888 140.66992 61.207031 C 141.02819 60.538739 141.41142 59.901402 141.82227 59.298828 C 142.67315 57.99414 143.6365 56.831398 144.71289 55.808594 C 144.73026 55.792085 144.74819 55.776201 144.76562 55.759766 C 145.02655 55.513761 145.29427 55.274474 145.56836 55.044922 C 145.85374 54.805914 146.14566 54.57664 146.44531 54.355469 C 146.55462 54.274792 146.67005 54.20135 146.78125 54.123047 C 147.11096 53.893682 147.44289 53.669349 147.78906 53.460938 C 147.81127 53.447377 147.83319 53.433397 147.85547 53.419922 C 148.197 53.216256 148.55267 53.029159 148.91016 52.845703 C 150.64182 51.994645 152.56783 51.424499 154.68945 51.136719 C 155.30333 51.088682 155.95016 51.047288 156.78711 51.013672 C 157.72047 50.976183 158.50984 50.956393 159.21289 50.962891 z "
       id="text3827" />
  </g>
</svg>
